<svg width="22" height="22" viewBox="0 0 22 22" fill="none" xmlns="http://www.w3.org/2000/svg">
<path d="M20.3333 15.0833C18.875 15.0833 17.475 14.85 16.1683 14.4183C15.76 14.29 15.305 14.3833 14.9783 14.6983L12.4117 17.265C9.11 15.585 6.40333 12.89 4.72333 9.58833L7.29 7.01C7.61667 6.695 7.71 6.24 7.58167 5.83167C7.15 4.525 6.91667 3.125 6.91667 1.66667C6.91667 1.025 6.39167 0.5 5.75 0.5H1.66667C1.025 0.5 0.5 1.025 0.5 1.66667C0.5 12.6217 9.37833 21.5 20.3333 21.5C20.975 21.5 21.5 20.975 21.5 20.3333V16.25C21.5 15.6083 20.975 15.0833 20.3333 15.0833ZM11 0.5V12.1667L14.5 8.66667H21.5V0.5H11Z" fill="#00814D"/>
</svg>
