<svg width="69" height="30" viewBox="0 0 69 30" fill="none" xmlns="http://www.w3.org/2000/svg">
<path d="M3.33114 30.0002L0 26.5966L10.3635 16.0078L13.6947 19.4113L3.33114 30.0002Z" fill="white"/>
<path d="M20.7269 26.5966L17.3958 30.0002L7.03223 19.4113L10.3634 16.0078L20.7269 26.5966Z" fill="white"/>
<path fill-rule="evenodd" clip-rule="evenodd" d="M18.2158 8.02226C18.2158 12.4528 14.7006 16.0445 10.3643 16.0445C6.02795 16.0445 2.5127 12.4528 2.5127 8.02226C2.5127 3.59168 6.02795 0 10.3643 0C14.7006 0 18.2158 3.59168 18.2158 8.02226ZM15.651 6.52477C15.651 8.09021 14.4089 9.35929 12.8768 9.35929C11.3446 9.35929 10.1025 8.09021 10.1025 6.52477C10.1025 4.9593 11.3446 3.69023 12.8768 3.69023C14.4089 3.69023 15.651 4.9593 15.651 6.52477ZM8.53926 2.4774C8.8201 2.40738 8.99223 2.11799 8.92368 1.83104C8.85515 1.54409 8.57192 1.36823 8.29108 1.43826C6.74985 1.82252 6.03269 2.65723 5.59898 3.19533C5.41521 3.42334 5.44714 3.76039 5.67033 3.94815C5.89347 4.13591 6.22335 4.10329 6.40712 3.87529C6.77961 3.41313 7.31715 2.7821 8.53926 2.4774Z" fill="white"/>
<path d="M15.4412 5.77606C15.4412 6.63263 14.7616 7.32702 13.9232 7.32702C13.0849 7.32702 12.4053 6.63263 12.4053 5.77606C12.4053 4.91949 13.0849 4.2251 13.9232 4.2251C14.7616 4.2251 15.4412 4.91949 15.4412 5.77606Z" fill="#FFF7F0"/>
<path d="M28.1033 7.89355C27.7443 7.89355 27.4435 7.77955 27.2009 7.55152C26.968 7.31358 26.8516 7.02108 26.8516 6.67409C26.8516 6.32706 26.968 6.03955 27.2009 5.81152C27.4435 5.57358 27.7443 5.45459 28.1033 5.45459C28.4623 5.45459 28.7583 5.57358 28.9912 5.81152C29.2338 6.03955 29.3551 6.32706 29.3551 6.67409C29.3551 7.02108 29.2338 7.31358 28.9912 7.55152C28.7583 7.77955 28.4623 7.89355 28.1033 7.89355ZM29.1076 8.87512V17.1141H27.0699V8.87512H29.1076Z" fill="white"/>
<path d="M33.2435 10.5851V14.5707C33.2435 14.8483 33.3065 15.0516 33.4327 15.1805C33.5685 15.2995 33.7917 15.3589 34.1022 15.3589H35.0483V17.1138H33.7674C32.0499 17.1138 31.1911 16.2612 31.1911 14.5559V10.5851H30.2305V8.87485H31.1911V6.8374H33.2435V8.87485H35.0483V10.5851H33.2435Z" fill="white"/>
<path d="M46.2767 8.75586C47.2666 8.75586 48.0623 9.06816 48.6638 9.6928C49.2753 10.3075 49.581 11.17 49.581 12.2805V17.1138H47.5429V12.563C47.5429 11.9186 47.3829 11.4278 47.0629 11.0907C46.7425 10.7437 46.3057 10.5702 45.7526 10.5702C45.1995 10.5702 44.7584 10.7437 44.4284 11.0907C44.108 11.4278 43.948 11.9186 43.948 12.563V17.1138H41.9103V12.563C41.9103 11.9186 41.7499 11.4278 41.4298 11.0907C41.1098 10.7437 40.673 10.5702 40.1199 10.5702C39.5569 10.5702 39.1106 10.7437 38.7807 11.0907C38.4606 11.4278 38.3006 11.9186 38.3006 12.563V17.1138H36.2627V8.87485H38.3006V9.87126C38.5623 9.52423 38.8974 9.25157 39.3048 9.05331C39.7221 8.85501 40.1779 8.75586 40.673 8.75586C41.3036 8.75586 41.8666 8.89468 42.3613 9.17226C42.8565 9.43997 43.2396 9.82663 43.5112 10.3323C43.7733 9.85637 44.1517 9.47466 44.6464 9.18715C45.1511 8.89963 45.6946 8.75586 46.2767 8.75586Z" fill="white"/>
<path d="M53.3849 10.5851V14.5707C53.3849 14.8483 53.4481 15.0516 53.5743 15.1805C53.7101 15.2995 53.9333 15.3589 54.2438 15.3589H55.19V17.1138H53.9091C52.1914 17.1138 51.3326 16.2612 51.3326 14.5559V10.5851H50.3721V8.87485H51.3326V6.8374H53.3849V8.87485H55.19V10.5851H53.3849Z" fill="white"/>
<path d="M58.442 10.0796C58.704 9.68305 59.063 9.36085 59.5192 9.11297C59.985 8.8651 60.5138 8.7412 61.1058 8.7412C61.7947 8.7412 62.4157 8.91467 62.9688 9.2617C63.5315 9.60869 63.973 10.1044 64.2934 10.7489C64.6234 11.3834 64.7882 12.122 64.7882 12.9648C64.7882 13.8075 64.6234 14.5561 64.2934 15.2104C63.973 15.8549 63.5315 16.3555 62.9688 16.7125C62.4157 17.0694 61.7947 17.2479 61.1058 17.2479C60.5043 17.2479 59.9754 17.1289 59.5192 16.8909C59.0729 16.6431 58.714 16.3258 58.442 15.9391V17.114H56.4043V6.10889H58.442V10.0796ZM62.7068 12.9648C62.7068 12.469 62.6051 12.0427 62.4011 11.6858C62.2073 11.319 61.9452 11.0413 61.6153 10.853C61.2949 10.6646 60.9458 10.5704 60.567 10.5704C60.1986 10.5704 59.8492 10.6696 59.5192 10.8679C59.1992 11.0562 58.9371 11.3338 58.733 11.7007C58.5393 12.0675 58.442 12.4988 58.442 12.9945C58.442 13.4902 58.5393 13.9215 58.733 14.2883C58.9371 14.6552 59.1992 14.9378 59.5192 15.136C59.8492 15.3244 60.1986 15.4186 60.567 15.4186C60.9458 15.4186 61.2949 15.3195 61.6153 15.1212C61.9452 14.9229 62.2073 14.6403 62.4011 14.2735C62.6051 13.9066 62.7068 13.4704 62.7068 12.9648Z" fill="white"/>
<path d="M67.3815 17.3253C66.9238 17.3253 66.5443 17.18 66.243 16.8892C65.9542 16.5858 65.8096 16.2128 65.8096 15.7703C65.8096 15.3279 65.9542 14.9612 66.243 14.6704C66.5443 14.367 66.9238 14.2153 67.3815 14.2153C67.8271 14.2153 68.1945 14.367 68.4837 14.6704C68.7729 14.9612 68.9171 15.3279 68.9171 15.7703C68.9171 16.2128 68.7729 16.5858 68.4837 16.8892C68.1945 17.18 67.8271 17.3253 67.3815 17.3253Z" fill="white"/>
<g opacity="0.5">
<path opacity="0.5" d="M27.4185 22.0934V23.0872C27.4185 23.1693 27.4356 23.2277 27.4697 23.2626C27.5038 23.2954 27.5631 23.3119 27.6474 23.3119H27.8492V23.5487H27.6022C27.4496 23.5487 27.3352 23.5129 27.2589 23.4411C27.1826 23.3693 27.1445 23.2513 27.1445 23.0872V22.0934H26.9307V21.8626H27.1445V21.438H27.4185V21.8626H27.8492V22.0934H27.4185Z" fill="white"/>
<path opacity="0.5" d="M31.5544 22.6411C31.5544 22.6945 31.5514 22.7509 31.5454 22.8103H30.2264C30.2364 22.9765 30.2916 23.1067 30.392 23.2011C30.4944 23.2934 30.6179 23.3396 30.7624 23.3396C30.8809 23.3396 30.9792 23.3119 31.0575 23.2565C31.1378 23.1991 31.194 23.1232 31.2262 23.0288H31.5213C31.4771 23.1908 31.3888 23.3231 31.2563 23.4257C31.1238 23.5262 30.9592 23.5765 30.7624 23.5765C30.6058 23.5765 30.4653 23.5406 30.3408 23.4688C30.2183 23.397 30.122 23.2955 30.0517 23.1642C29.9815 23.0309 29.9463 22.877 29.9463 22.7026C29.9463 22.5283 29.9804 22.3755 30.0487 22.2442C30.117 22.1129 30.2123 22.0124 30.3348 21.9427C30.4593 21.8708 30.6018 21.835 30.7624 21.835C30.919 21.835 31.0575 21.8698 31.178 21.9396C31.2985 22.0093 31.3908 22.1057 31.455 22.2288C31.5213 22.3498 31.5544 22.4873 31.5544 22.6411ZM31.2713 22.5826C31.2713 22.476 31.2483 22.3847 31.2021 22.3088C31.1559 22.2308 31.0927 22.1724 31.0124 22.1334C30.9341 22.0924 30.8467 22.0719 30.7504 22.0719C30.6118 22.0719 30.4934 22.117 30.395 22.2073C30.2986 22.2975 30.2434 22.4227 30.2294 22.5826H31.2713Z" fill="white"/>
<path opacity="0.5" d="M33.6807 22.7026C33.6807 22.5283 33.7148 22.3765 33.783 22.2473C33.8513 22.116 33.9457 22.0144 34.0661 21.9427C34.1886 21.8708 34.3281 21.835 34.4847 21.835C34.6875 21.835 34.8541 21.8852 34.9846 21.9857C35.1171 22.0862 35.2045 22.2257 35.2466 22.4042H34.9515C34.9234 22.3016 34.8682 22.2206 34.7859 22.1611C34.7055 22.1016 34.6052 22.0719 34.4847 22.0719C34.3281 22.0719 34.2017 22.1273 34.1053 22.238C34.0089 22.3468 33.9607 22.5016 33.9607 22.7026C33.9607 22.9057 34.0089 23.0626 34.1053 23.1734C34.2017 23.2842 34.3281 23.3396 34.4847 23.3396C34.6052 23.3396 34.7055 23.3108 34.7859 23.2534C34.8662 23.196 34.9214 23.1139 34.9515 23.0072H35.2466C35.2024 23.1796 35.1141 23.318 34.9816 23.4226C34.8491 23.5252 34.6835 23.5765 34.4847 23.5765C34.3281 23.5765 34.1886 23.5406 34.0661 23.4688C33.9457 23.397 33.8513 23.2955 33.783 23.1642C33.7148 23.0329 33.6807 22.8791 33.6807 22.7026Z" fill="white"/>
<path opacity="0.5" d="M38.2987 21.8315C38.4231 21.8315 38.5354 21.8591 38.636 21.9145C38.7362 21.9679 38.8147 22.0489 38.8709 22.1576C38.9289 22.2663 38.9582 22.3987 38.9582 22.5545V23.5484H38.687V22.5946C38.687 22.4263 38.6459 22.2981 38.5637 22.2099C38.4811 22.1197 38.3688 22.0745 38.2264 22.0745C38.0818 22.0745 37.9662 22.1207 37.8799 22.213C37.7955 22.3053 37.7537 22.4397 37.7537 22.6161V23.5484H37.4795V21.2715H37.7537V22.1022C37.8076 22.0161 37.8821 21.9494 37.9764 21.9022C38.0726 21.8551 38.1801 21.8315 38.2987 21.8315Z" fill="white"/>
<path opacity="0.5" d="M42.0766 21.8315C42.2774 21.8315 42.44 21.8941 42.5644 22.0192C42.6892 22.1423 42.7512 22.3208 42.7512 22.5546V23.5484H42.4803V22.5946C42.4803 22.4264 42.4392 22.2982 42.3566 22.21C42.2744 22.1197 42.1621 22.0746 42.0193 22.0746C41.8747 22.0746 41.7595 22.1208 41.6732 22.2131C41.5888 22.3054 41.5466 22.4398 41.5466 22.6162V23.5484H41.2725V21.8623H41.5466V22.1023C41.6009 22.0162 41.674 21.9495 41.7665 21.9023C41.8608 21.8551 41.9643 21.8315 42.0766 21.8315Z" fill="white"/>
<path opacity="0.5" d="M45.786 23.5765C45.6315 23.5765 45.4909 23.5406 45.3643 23.4688C45.2399 23.397 45.1415 23.2955 45.0692 23.1642C44.9991 23.0309 44.9639 22.877 44.9639 22.7026C44.9639 22.5304 45.0002 22.3786 45.0721 22.2473C45.1466 22.1139 45.2468 22.0124 45.3735 21.9427C45.5001 21.8708 45.6414 21.835 45.7981 21.835C45.9548 21.835 46.0961 21.8708 46.2228 21.9427C46.349 22.0124 46.4485 22.1129 46.5208 22.2442C46.5953 22.3755 46.6323 22.5283 46.6323 22.7026C46.6323 22.877 46.5942 23.0309 46.5178 23.1642C46.4437 23.2955 46.342 23.397 46.2136 23.4688C46.0851 23.5406 45.9427 23.5765 45.786 23.5765ZM45.786 23.3303C45.8844 23.3303 45.9768 23.3068 46.0631 23.2596C46.1493 23.2124 46.2187 23.1416 46.2708 23.0473C46.3251 22.9529 46.3523 22.838 46.3523 22.7026C46.3523 22.5673 46.3263 22.4524 46.2738 22.358C46.2217 22.2637 46.1534 22.1939 46.069 22.1488C45.9849 22.1016 45.8935 22.078 45.7952 22.078C45.6946 22.078 45.6025 22.1016 45.5181 22.1488C45.4359 22.1939 45.3694 22.2637 45.3191 22.358C45.2692 22.4524 45.2439 22.5673 45.2439 22.7026C45.2439 22.8401 45.2681 22.956 45.3162 23.0503C45.3665 23.1447 45.4326 23.2155 45.5151 23.2627C45.5973 23.3078 45.6876 23.3303 45.786 23.3303Z" fill="white"/>
<path opacity="0.5" d="M49.1332 21.2715V23.5484H48.8594V21.2715H49.1332Z" fill="white"/>
<path opacity="0.5" d="M52.1874 23.5765C52.0328 23.5765 51.8923 23.5406 51.7657 23.4688C51.6412 23.397 51.5429 23.2955 51.4706 23.1642C51.4005 23.0309 51.3652 22.877 51.3652 22.7026C51.3652 22.5304 51.4016 22.3786 51.4735 22.2473C51.548 22.1139 51.6482 22.0124 51.7748 21.9427C51.9015 21.8708 52.0428 21.835 52.1995 21.835C52.3562 21.835 52.4975 21.8708 52.6241 21.9427C52.7504 22.0124 52.8498 22.1129 52.9221 22.2442C52.9966 22.3755 53.0337 22.5283 53.0337 22.7026C53.0337 22.877 52.9955 23.0309 52.9192 23.1642C52.8451 23.2955 52.7434 23.397 52.6149 23.4688C52.4865 23.5406 52.3441 23.5765 52.1874 23.5765ZM52.1874 23.3303C52.2857 23.3303 52.3782 23.3068 52.4645 23.2596C52.5507 23.2124 52.6201 23.1416 52.6722 23.0473C52.7265 22.9529 52.7537 22.838 52.7537 22.7026C52.7537 22.5673 52.7276 22.4524 52.6751 22.358C52.623 22.2637 52.5548 22.1939 52.4703 22.1488C52.3863 22.1016 52.2949 22.078 52.1965 22.078C52.096 22.078 52.0039 22.1016 51.9194 22.1488C51.8372 22.1939 51.7708 22.2637 51.7205 22.358C51.6706 22.4524 51.6453 22.5673 51.6453 22.7026C51.6453 22.8401 51.6695 22.956 51.7176 23.0503C51.7679 23.1447 51.8339 23.2155 51.9165 23.2627C51.9987 23.3078 52.089 23.3303 52.1874 23.3303Z" fill="white"/>
<path opacity="0.5" d="M55.9411 21.835C56.0835 21.835 56.2079 21.8668 56.3143 21.9304C56.423 21.9939 56.5033 22.0739 56.5555 22.1704V21.8626H56.8326V23.5857C56.8326 23.7396 56.8003 23.876 56.736 23.995C56.6718 24.116 56.5793 24.2104 56.4589 24.278C56.3408 24.3457 56.202 24.3796 56.0435 24.3796C55.8266 24.3796 55.646 24.3272 55.5014 24.2227C55.3568 24.118 55.2716 23.9755 55.2456 23.795H55.5164C55.5465 23.8975 55.6089 23.9796 55.7032 24.0411C55.7976 24.1047 55.911 24.1365 56.0435 24.1365C56.1939 24.1365 56.3165 24.0883 56.4109 23.9919C56.5074 23.8955 56.5555 23.7601 56.5555 23.5857V23.2319C56.5011 23.3303 56.4208 23.4124 56.3143 23.478C56.2079 23.5437 56.0835 23.5765 55.9411 23.5765C55.7946 23.5765 55.661 23.5396 55.5406 23.4657C55.4221 23.3919 55.3289 23.2883 55.2606 23.155C55.1923 23.0216 55.1582 22.8698 55.1582 22.6996C55.1582 22.5272 55.1923 22.3765 55.2606 22.2473C55.3289 22.116 55.4221 22.0144 55.5406 21.9427C55.661 21.8708 55.7946 21.835 55.9411 21.835ZM56.5555 22.7026C56.5555 22.5755 56.5301 22.4647 56.4802 22.3703C56.4299 22.276 56.3617 22.2042 56.2754 22.1549C56.191 22.1037 56.0978 22.078 55.9954 22.078C55.893 22.078 55.7994 22.1026 55.7153 22.1519C55.6309 22.2011 55.5638 22.2729 55.5135 22.3673C55.4632 22.4616 55.4382 22.5724 55.4382 22.6996C55.4382 22.8288 55.4632 22.9416 55.5135 23.038C55.5638 23.1324 55.6309 23.2052 55.7153 23.2565C55.7994 23.3057 55.893 23.3303 55.9954 23.3303C56.0978 23.3303 56.191 23.3057 56.2754 23.2565C56.3617 23.2052 56.4299 23.1324 56.4802 23.038C56.5301 22.9416 56.5555 22.8298 56.5555 22.7026Z" fill="white"/>
<path opacity="0.5" d="M59.3046 21.5886C59.2525 21.5886 59.2084 21.5701 59.1721 21.5332C59.1361 21.4963 59.1182 21.4512 59.1182 21.3978C59.1182 21.3445 59.1361 21.2994 59.1721 21.2624C59.2084 21.2255 59.2525 21.207 59.3046 21.207C59.3549 21.207 59.3971 21.2255 59.4312 21.2624C59.4672 21.2994 59.4855 21.3445 59.4855 21.3978C59.4855 21.4512 59.4672 21.4963 59.4312 21.5332C59.3971 21.5701 59.3549 21.5886 59.3046 21.5886ZM59.4371 21.8624V23.5486H59.1633V21.8624H59.4371Z" fill="white"/>
<path opacity="0.5" d="M63.2772 22.6411C63.2772 22.6945 63.2739 22.7509 63.2681 22.8103H61.949C61.9593 22.9765 62.0143 23.1067 62.1145 23.2011C62.2169 23.2934 62.3406 23.3396 62.4852 23.3396C62.6034 23.3396 62.7017 23.3119 62.7803 23.2565C62.8607 23.1991 62.9168 23.1232 62.9488 23.0288H63.2438C63.1998 23.1908 63.1113 23.3231 62.9788 23.4257C62.8464 23.5262 62.6819 23.5765 62.4852 23.5765C62.3285 23.5765 62.1879 23.5406 62.0635 23.4688C61.9409 23.397 61.8447 23.2955 61.7743 23.1642C61.7042 23.0309 61.6689 22.877 61.6689 22.7026C61.6689 22.5283 61.7031 22.3755 61.7713 22.2442C61.8396 22.1129 61.935 22.0124 62.0576 21.9427C62.182 21.8708 62.3244 21.835 62.4852 21.835C62.6416 21.835 62.7803 21.8698 62.9007 21.9396C63.0211 22.0093 63.1135 22.1057 63.1778 22.2288C63.2438 22.3498 63.2772 22.4873 63.2772 22.6411ZM62.9939 22.5826C62.9939 22.476 62.9708 22.3847 62.9249 22.3088C62.8786 22.2308 62.8155 22.1724 62.7351 22.1334C62.6566 22.0924 62.5692 22.0719 62.4731 22.0719C62.3344 22.0719 62.2162 22.117 62.1178 22.2073C62.0213 22.2975 61.9662 22.4227 61.9519 22.5826H62.9939Z" fill="white"/>
<path opacity="0.5" d="M66.0896 23.5765C65.9634 23.5765 65.85 23.555 65.7494 23.5119C65.6488 23.4667 65.5696 23.4052 65.5116 23.3273C65.4532 23.2472 65.4213 23.156 65.415 23.0534H65.6984C65.7061 23.1375 65.7443 23.2062 65.8125 23.2596C65.883 23.3129 65.9744 23.3396 66.0867 23.3396C66.1909 23.3396 66.2735 23.316 66.3337 23.2688C66.3939 23.2216 66.424 23.1621 66.424 23.0903C66.424 23.0165 66.3917 22.9621 66.3275 22.9273C66.2632 22.8904 66.1641 22.8544 66.0294 22.8196C65.9069 22.7867 65.8067 22.7539 65.7285 22.7211C65.6521 22.6862 65.5857 22.636 65.5296 22.5703C65.4752 22.5026 65.4481 22.4144 65.4481 22.3057C65.4481 22.2196 65.4734 22.1406 65.5237 22.0688C65.5736 21.997 65.6452 21.9406 65.7373 21.8996C65.8298 21.8565 65.9351 21.835 66.0537 21.835C66.2364 21.835 66.384 21.8821 66.4963 21.9765C66.6086 22.0709 66.6688 22.2001 66.6769 22.3642H66.4031C66.3968 22.276 66.3616 22.2052 66.2974 22.1519C66.2353 22.0985 66.1509 22.0719 66.0445 22.0719C65.9461 22.0719 65.8679 22.0934 65.8096 22.1365C65.7512 22.1796 65.7222 22.236 65.7222 22.3057C65.7222 22.3611 65.7395 22.4072 65.7736 22.4442C65.8096 22.4791 65.8536 22.5078 65.9061 22.5304C65.9601 22.5509 66.0346 22.5745 66.1289 22.6011C66.2474 22.6339 66.3436 22.6667 66.4181 22.6996C66.4922 22.7303 66.5554 22.7775 66.6075 22.8411C66.6618 22.9047 66.6901 22.9878 66.6919 23.0903C66.6919 23.1826 66.667 23.2657 66.6167 23.3396C66.5664 23.4134 66.4952 23.4719 66.4031 23.515C66.3124 23.556 66.2082 23.5765 66.0896 23.5765Z" fill="white"/>
</g>
</svg>
