<svg width="108" height="54" viewBox="0 0 108 54" fill="none" xmlns="http://www.w3.org/2000/svg">
<path d="M2.016 8.32476V4.79676H0.924V13.6768H2.016V12.4648C2.424 13.1848 3.276 13.7848 4.476 13.7848C6.24 13.7848 7.596 12.4048 7.596 10.3648C7.596 8.31276 6.252 6.99276 4.476 6.99276C3.312 6.99276 2.436 7.59276 2.016 8.32476ZM6.48 10.3648C6.48 11.9128 5.46 12.8248 4.248 12.8248C3.06 12.8248 2.016 11.9248 2.016 10.3768C2.016 8.85276 3.06 7.94076 4.248 7.94076C5.46 7.94076 6.48 8.81676 6.48 10.3648ZM10.1254 10.1008C10.1254 8.57676 10.9174 8.10876 11.9614 8.10876H12.2494V6.98076C11.2054 6.98076 10.4974 7.43676 10.1254 8.16876V7.10076H9.03338V13.6768H10.1254V10.1008ZM19.7499 10.3768C19.7499 8.30076 18.2979 6.99276 16.4259 6.99276C14.5659 6.99276 13.1019 8.30076 13.1019 10.3768C13.1019 12.4648 14.5179 13.7848 16.3779 13.7848C18.2499 13.7848 19.7499 12.4648 19.7499 10.3768ZM14.2179 10.3768C14.2179 8.72076 15.2619 7.94076 16.4139 7.94076C17.5419 7.94076 18.6339 8.72076 18.6339 10.3768C18.6339 12.0448 17.5179 12.8248 16.3779 12.8248C15.2379 12.8248 14.2179 12.0448 14.2179 10.3768ZM27.0177 7.10076H25.9257V10.7128C25.9257 12.1288 25.1697 12.8248 24.0417 12.8248C22.9377 12.8248 22.2057 12.1408 22.2057 10.8088V7.10076H21.1257V10.9528C21.1257 12.8368 22.3137 13.7728 23.8257 13.7728C24.7017 13.7728 25.5057 13.3888 25.9257 12.7048V13.6768H27.0177V7.10076ZM28.4535 10.3648C28.4535 12.4048 29.8095 13.7848 31.5735 13.7848C32.7735 13.7848 33.6255 13.1488 34.0215 12.4408V13.8208C34.0215 15.2248 33.1455 15.9688 31.9815 15.9688C30.9015 15.9688 30.1215 15.4288 29.8815 14.6368H28.8015C29.0175 16.0408 30.2535 16.9168 31.9815 16.9168C33.9135 16.9168 35.1255 15.6328 35.1255 13.8208V7.10076H34.0215V8.30076C33.6375 7.59276 32.7735 6.99276 31.5735 6.99276C29.8095 6.99276 28.4535 8.31276 28.4535 10.3648ZM34.0215 10.3768C34.0215 11.9248 32.9895 12.8248 31.7895 12.8248C30.5895 12.8248 29.5695 11.9128 29.5695 10.3648C29.5695 8.81676 30.5895 7.94076 31.7895 7.94076C32.9895 7.94076 34.0215 8.85276 34.0215 10.3768ZM36.9709 13.6768H38.0629V10.0408C38.0629 8.62476 38.8309 7.92876 39.9469 7.92876C41.0509 7.92876 41.7829 8.61276 41.7829 9.95676V13.6768H42.8629V9.80076C42.8629 7.91676 41.6989 6.98076 40.2349 6.98076C39.3109 6.98076 38.4949 7.35276 38.0629 8.04876V4.79676H36.9709V13.6768ZM44.8867 11.8768C44.8867 13.1968 45.5467 13.6768 46.7107 13.6768H47.6947V12.7528H46.8907C46.2187 12.7528 45.9787 12.5248 45.9787 11.8768V8.00076H47.6947V7.10076H45.9787V5.44476H44.8867V7.10076H44.0347V8.00076H44.8867V11.8768ZM52.457 11.8768C52.457 13.1968 53.117 13.6768 54.281 13.6768H55.265V12.7528H54.461C53.789 12.7528 53.549 12.5248 53.549 11.8768V8.00076H55.265V7.10076H53.549V5.44476H52.457V7.10076H51.605V8.00076H52.457V11.8768ZM62.8281 10.3768C62.8281 8.30076 61.3761 6.99276 59.5041 6.99276C57.6441 6.99276 56.1801 8.30076 56.1801 10.3768C56.1801 12.4648 57.5961 13.7848 59.4561 13.7848C61.3281 13.7848 62.8281 12.4648 62.8281 10.3768ZM57.2961 10.3768C57.2961 8.72076 58.3401 7.94076 59.4921 7.94076C60.6201 7.94076 61.7121 8.72076 61.7121 10.3768C61.7121 12.0448 60.5961 12.8248 59.4561 12.8248C58.3161 12.8248 57.2961 12.0448 57.2961 10.3768ZM69.9591 12.4288L67.8951 7.10076H66.6831L69.3351 13.6048L68.0391 16.7728H69.1671L73.1271 7.10076H71.9991L69.9591 12.4288ZM80.4648 10.3768C80.4648 8.30076 79.0128 6.99276 77.1408 6.99276C75.2808 6.99276 73.8168 8.30076 73.8168 10.3768C73.8168 12.4648 75.2328 13.7848 77.0928 13.7848C78.9648 13.7848 80.4648 12.4648 80.4648 10.3768ZM74.9328 10.3768C74.9328 8.72076 75.9768 7.94076 77.1288 7.94076C78.2568 7.94076 79.3488 8.72076 79.3488 10.3768C79.3488 12.0448 78.2328 12.8248 77.0928 12.8248C75.9528 12.8248 74.9328 12.0448 74.9328 10.3768ZM87.7326 7.10076H86.6406V10.7128C86.6406 12.1288 85.8846 12.8248 84.7566 12.8248C83.6526 12.8248 82.9206 12.1408 82.9206 10.8088V7.10076H81.8406V10.9528C81.8406 12.8368 83.0286 13.7728 84.5406 13.7728C85.4166 13.7728 86.2206 13.3888 86.6406 12.7048V13.6768H87.7326V7.10076ZM93.8676 8.32476V4.79676H92.7756V13.6768H93.8676V12.4648C94.2756 13.1848 95.1276 13.7848 96.3276 13.7848C98.0916 13.7848 99.4476 12.4048 99.4476 10.3648C99.4476 8.31276 98.1036 6.99276 96.3276 6.99276C95.1636 6.99276 94.2876 7.59276 93.8676 8.32476ZM98.3316 10.3648C98.3316 11.9128 97.3116 12.8248 96.0996 12.8248C94.9116 12.8248 93.8676 11.9248 93.8676 10.3768C93.8676 8.85276 94.9116 7.94076 96.0996 7.94076C97.3116 7.94076 98.3316 8.81676 98.3316 10.3648ZM103.381 12.4288L101.317 7.10076H100.105L102.757 13.6048L101.461 16.7728H102.589L106.549 7.10076H105.421L103.381 12.4288Z" fill="#4E4E4E"/>
<path d="M22.8311 53.6769L19.5 50.2734L29.8635 39.6846L33.1947 43.0881L22.8311 53.6769Z" fill="#ED984B"/>
<path d="M40.2269 50.2734L36.8958 53.6769L26.5322 43.0881L29.8634 39.6846L40.2269 50.2734Z" fill="#ED984B"/>
<path fill-rule="evenodd" clip-rule="evenodd" d="M37.7158 31.699C37.7158 36.1296 34.2006 39.7212 29.8643 39.7212C25.528 39.7212 22.0127 36.1296 22.0127 31.699C22.0127 27.2684 25.528 23.6768 29.8643 23.6768C34.2006 23.6768 37.7158 27.2684 37.7158 31.699ZM35.151 30.2015C35.151 31.767 33.9089 33.036 32.3768 33.036C30.8446 33.036 29.6025 31.767 29.6025 30.2015C29.6025 28.6361 30.8446 27.367 32.3768 27.367C33.9089 27.367 35.151 28.6361 35.151 30.2015ZM28.0393 26.1542C28.3201 26.0841 28.4922 25.7948 28.4237 25.5078C28.3552 25.2209 28.0719 25.045 27.7911 25.115C26.2498 25.4993 25.5327 26.334 25.099 26.8721C24.9152 27.1001 24.9471 27.4371 25.1703 27.6249C25.3935 27.8127 25.7234 27.78 25.9071 27.552C26.2796 27.0899 26.8172 26.4589 28.0393 26.1542Z" fill="#ED984B"/>
<path d="M34.9412 29.4523C34.9412 30.3089 34.2616 31.0033 33.4232 31.0033C32.5849 31.0033 31.9053 30.3089 31.9053 29.4523C31.9053 28.5958 32.5849 27.9014 33.4232 27.9014C34.2616 27.9014 34.9412 28.5958 34.9412 29.4523Z" fill="#ED984B"/>
<path d="M47.6033 31.5708C47.2443 31.5708 46.9435 31.4568 46.7009 31.2288C46.468 30.9908 46.3516 30.6983 46.3516 30.3513C46.3516 30.0043 46.468 29.7168 46.7009 29.4888C46.9435 29.2508 47.2443 29.1318 47.6033 29.1318C47.9623 29.1318 48.2583 29.2508 48.4912 29.4888C48.7338 29.7168 48.8551 30.0043 48.8551 30.3513C48.8551 30.6983 48.7338 30.9908 48.4912 31.2288C48.2583 31.4568 47.9623 31.5708 47.6033 31.5708ZM48.6076 32.5524V40.7913H46.5699V32.5524H48.6076Z" fill="#ED984B"/>
<path d="M52.7435 34.2624V38.248C52.7435 38.5256 52.8065 38.7288 52.9327 38.8577C53.0685 38.9767 53.2917 39.0362 53.6022 39.0362H54.5483V40.7911H53.2674C51.5499 40.7911 50.6911 39.9384 50.6911 38.2331V34.2624H49.7305V32.5521H50.6911V30.5146H52.7435V32.5521H54.5483V34.2624H52.7435Z" fill="#ED984B"/>
<path d="M65.7767 32.4326C66.7666 32.4326 67.5623 32.7449 68.1638 33.3696C68.7753 33.9843 69.081 34.8468 69.081 35.9572V40.7906H67.0429V36.2398C67.0429 35.5954 66.8829 35.1046 66.5629 34.7675C66.2425 34.4205 65.8057 34.247 65.2526 34.247C64.6995 34.247 64.2584 34.4205 63.9284 34.7675C63.608 35.1046 63.448 35.5954 63.448 36.2398V40.7906H61.4103V36.2398C61.4103 35.5954 61.2499 35.1046 60.9298 34.7675C60.6098 34.4205 60.173 34.247 59.6199 34.247C59.0569 34.247 58.6106 34.4205 58.2807 34.7675C57.9606 35.1046 57.8006 35.5954 57.8006 36.2398V40.7906H55.7627V32.5516H57.8006V33.548C58.0623 33.201 58.3974 32.9283 58.8048 32.7301C59.2221 32.5318 59.6779 32.4326 60.173 32.4326C60.8036 32.4326 61.3666 32.5714 61.8613 32.849C62.3565 33.1167 62.7396 33.5034 63.0112 34.009C63.2733 33.5331 63.6517 33.1514 64.1464 32.8639C64.6511 32.5764 65.1946 32.4326 65.7767 32.4326Z" fill="#ED984B"/>
<path d="M72.8849 34.2624V38.248C72.8849 38.5256 72.9481 38.7288 73.0743 38.8577C73.2101 38.9767 73.4333 39.0362 73.7438 39.0362H74.69V40.7911H73.4091C71.6914 40.7911 70.8326 39.9384 70.8326 38.2331V34.2624H69.8721V32.5521H70.8326V30.5146H72.8849V32.5521H74.69V34.2624H72.8849Z" fill="#ED984B"/>
<path d="M77.942 33.7569C78.204 33.3603 78.563 33.0381 79.0192 32.7902C79.485 32.5423 80.0138 32.4184 80.6058 32.4184C81.2947 32.4184 81.9157 32.5919 82.4688 32.9389C83.0315 33.2859 83.473 33.7817 83.7934 34.4261C84.1234 35.0607 84.2882 35.7993 84.2882 36.642C84.2882 37.4848 84.1234 38.2333 83.7934 38.8876C83.473 39.5321 83.0315 40.0328 82.4688 40.3897C81.9157 40.7466 81.2947 40.9251 80.6058 40.9251C80.0043 40.9251 79.4754 40.8061 79.0192 40.5682C78.5729 40.3203 78.214 40.003 77.942 39.6164V40.7913H75.9043V29.7861H77.942V33.7569ZM82.2068 36.642C82.2068 36.1463 82.1051 35.72 81.9011 35.3631C81.7073 34.9962 81.4452 34.7186 81.1153 34.5302C80.7949 34.3419 80.4458 34.2477 80.067 34.2477C79.6986 34.2477 79.3492 34.3468 79.0192 34.5451C78.6992 34.7335 78.4371 35.0111 78.233 35.3779C78.0393 35.7448 77.942 36.176 77.942 36.6718C77.942 37.1675 78.0393 37.5988 78.233 37.9656C78.4371 38.3325 78.6992 38.615 79.0192 38.8133C79.3492 39.0017 79.6986 39.0958 80.067 39.0958C80.4458 39.0958 80.7949 38.9967 81.1153 38.7984C81.4452 38.6001 81.7073 38.3176 81.9011 37.9507C82.1051 37.5839 82.2068 37.1476 82.2068 36.642Z" fill="#ED984B"/>
<path d="M86.8815 41.0016C86.4238 41.0016 86.0443 40.8562 85.743 40.5654C85.4542 40.262 85.3096 39.8891 85.3096 39.4466C85.3096 39.0041 85.4542 38.6375 85.743 38.3467C86.0443 38.0433 86.4238 37.8916 86.8815 37.8916C87.3271 37.8916 87.6945 38.0433 87.9837 38.3467C88.2729 38.6375 88.4171 39.0041 88.4171 39.4466C88.4171 39.8891 88.2729 40.262 87.9837 40.5654C87.6945 40.8562 87.3271 41.0016 86.8815 41.0016Z" fill="#ED984B"/>
<g opacity="0.5">
<path opacity="0.5" d="M46.9175 45.7699V46.7638C46.9175 46.8458 46.9346 46.9043 46.9687 46.9391C47.0029 46.972 47.0621 46.9884 47.1464 46.9884H47.3482V47.2253H47.1012C46.9487 47.2253 46.8342 47.1894 46.758 47.1176C46.6816 47.0458 46.6435 46.9279 46.6435 46.7638V45.7699H46.4297V45.5391H46.6435V45.1145H46.9175V45.5391H47.3482V45.7699H46.9175Z" fill="#ED984B"/>
<path opacity="0.5" d="M51.0531 46.3176C51.0531 46.371 51.05 46.4274 51.044 46.4868H49.725C49.735 46.653 49.7902 46.7832 49.8906 46.8776C49.993 46.9699 50.1165 47.0161 50.261 47.0161C50.3795 47.0161 50.4779 46.9884 50.5561 46.933C50.6365 46.8756 50.6927 46.7997 50.7248 46.7053H51.0199C50.9758 46.8674 50.8874 46.9997 50.7549 47.1022C50.6224 47.2028 50.4578 47.253 50.261 47.253C50.1045 47.253 49.9639 47.2171 49.8394 47.1453C49.717 47.0735 49.6206 46.972 49.5503 46.8407C49.4801 46.7074 49.4449 46.5535 49.4449 46.3791C49.4449 46.2048 49.479 46.052 49.5473 45.9207C49.6156 45.7894 49.7109 45.6889 49.8334 45.6192C49.9579 45.5474 50.1004 45.5115 50.261 45.5115C50.4176 45.5115 50.5561 45.5463 50.6766 45.6161C50.7971 45.6858 50.8894 45.7822 50.9537 45.9053C51.0199 46.0263 51.0531 46.1638 51.0531 46.3176ZM50.77 46.2591C50.77 46.1525 50.7469 46.0612 50.7007 45.9853C50.6545 45.9074 50.5913 45.8489 50.511 45.8099C50.4327 45.7689 50.3454 45.7484 50.249 45.7484C50.1105 45.7484 49.992 45.7935 49.8936 45.8838C49.7973 45.974 49.7421 46.0992 49.728 46.2591H50.77Z" fill="#ED984B"/>
<path opacity="0.5" d="M53.1795 46.3791C53.1795 46.2048 53.2136 46.053 53.2819 45.9238C53.3501 45.7925 53.4445 45.6909 53.565 45.6192C53.6874 45.5474 53.827 45.5115 53.9835 45.5115C54.1863 45.5115 54.3529 45.5617 54.4835 45.6622C54.616 45.7628 54.7033 45.9022 54.7454 46.0807H54.4503C54.4222 45.9781 54.367 45.8971 54.2847 45.8376C54.2044 45.7781 54.104 45.7484 53.9835 45.7484C53.827 45.7484 53.7005 45.8038 53.6041 45.9146C53.5077 46.0233 53.4595 46.1781 53.4595 46.3791C53.4595 46.5822 53.5077 46.7391 53.6041 46.8499C53.7005 46.9607 53.827 47.0161 53.9835 47.0161C54.104 47.0161 54.2044 46.9874 54.2847 46.9299C54.365 46.8725 54.4202 46.7904 54.4503 46.6838H54.7454C54.7013 46.8561 54.6129 46.9946 54.4804 47.0991C54.348 47.2017 54.1823 47.253 53.9835 47.253C53.827 47.253 53.6874 47.2171 53.565 47.1453C53.4445 47.0735 53.3501 46.972 53.2819 46.8407C53.2136 46.7094 53.1795 46.5556 53.1795 46.3791Z" fill="#ED984B"/>
<path opacity="0.5" d="M57.7974 45.5085C57.9219 45.5085 58.0342 45.5361 58.1347 45.5915C58.2349 45.6449 58.3135 45.7259 58.3696 45.8346C58.4276 45.9433 58.457 46.0757 58.457 46.2315V47.2254H58.1857V46.2716C58.1857 46.1033 58.1446 45.9751 58.0624 45.8869C57.9798 45.7967 57.8675 45.7515 57.7251 45.7515C57.5805 45.7515 57.4649 45.7977 57.3787 45.89C57.2942 45.9823 57.2524 46.1167 57.2524 46.2931V47.2254H56.9782V44.9485H57.2524V45.7792C57.3064 45.6931 57.3809 45.6264 57.4752 45.5792C57.5713 45.5321 57.6789 45.5085 57.7974 45.5085Z" fill="#ED984B"/>
<path opacity="0.5" d="M61.5756 45.5085C61.7763 45.5085 61.9389 45.5711 62.0633 45.6962C62.1881 45.8193 62.2502 45.9978 62.2502 46.2316V47.2254H61.9793V46.2716C61.9793 46.1034 61.9382 45.9752 61.8556 45.887C61.7734 45.7967 61.6611 45.7516 61.5183 45.7516C61.3737 45.7516 61.2585 45.7978 61.1722 45.8901C61.0878 45.9824 61.0456 46.1168 61.0456 46.2932V47.2254H60.7714V45.5393H61.0456V45.7793C61.0999 45.6932 61.1729 45.6265 61.2654 45.5793C61.3598 45.5321 61.4633 45.5085 61.5756 45.5085Z" fill="#ED984B"/>
<path opacity="0.5" d="M65.2847 47.253C65.1302 47.253 64.9896 47.2171 64.863 47.1453C64.7386 47.0735 64.6402 46.972 64.5679 46.8407C64.4978 46.7074 64.4626 46.5535 64.4626 46.3791C64.4626 46.2069 64.4989 46.0551 64.5708 45.9238C64.6453 45.7904 64.7455 45.6889 64.8722 45.6192C64.9988 45.5474 65.1401 45.5115 65.2968 45.5115C65.4535 45.5115 65.5948 45.5474 65.7214 45.6192C65.8477 45.6889 65.9472 45.7894 66.0195 45.9207C66.094 46.052 66.131 46.2048 66.131 46.3791C66.131 46.5535 66.0929 46.7074 66.0165 46.8407C65.9424 46.972 65.8407 47.0735 65.7123 47.1453C65.5838 47.2171 65.4414 47.253 65.2847 47.253ZM65.2847 47.0069C65.383 47.0069 65.4755 46.9833 65.5618 46.9361C65.648 46.8889 65.7174 46.8181 65.7695 46.7238C65.8238 46.6294 65.851 46.5146 65.851 46.3791C65.851 46.2438 65.8249 46.1289 65.7725 46.0346C65.7203 45.9402 65.6521 45.8705 65.5677 45.8253C65.4836 45.7781 65.3922 45.7545 65.2939 45.7545C65.1933 45.7545 65.1012 45.7781 65.0168 45.8253C64.9345 45.8705 64.8681 45.9402 64.8178 46.0346C64.7679 46.1289 64.7426 46.2438 64.7426 46.3791C64.7426 46.5166 64.7668 46.6325 64.8149 46.7268C64.8652 46.8212 64.9312 46.892 65.0138 46.9392C65.096 46.9843 65.1863 47.0069 65.2847 47.0069Z" fill="#ED984B"/>
<path opacity="0.5" d="M68.6323 44.9485V47.2254H68.3585V44.9485H68.6323Z" fill="#ED984B"/>
<path opacity="0.5" d="M71.6863 47.253C71.5317 47.253 71.3912 47.2171 71.2646 47.1453C71.1401 47.0735 71.0418 46.972 70.9695 46.8407C70.8994 46.7074 70.8641 46.5535 70.8641 46.3791C70.8641 46.2069 70.9005 46.0551 70.9724 45.9238C71.0469 45.7904 71.1471 45.6889 71.2737 45.6192C71.4004 45.5474 71.5417 45.5115 71.6984 45.5115C71.8551 45.5115 71.9964 45.5474 72.123 45.6192C72.2493 45.6889 72.3487 45.7894 72.421 45.9207C72.4955 46.052 72.5326 46.2048 72.5326 46.3791C72.5326 46.5535 72.4944 46.7074 72.4181 46.8407C72.344 46.972 72.2423 47.0735 72.1138 47.1453C71.9854 47.2171 71.843 47.253 71.6863 47.253ZM71.6863 47.0069C71.7846 47.0069 71.8771 46.9833 71.9634 46.9361C72.0496 46.8889 72.119 46.8181 72.1711 46.7238C72.2254 46.6294 72.2526 46.5146 72.2526 46.3791C72.2526 46.2438 72.2265 46.1289 72.174 46.0346C72.1219 45.9402 72.0537 45.8705 71.9692 45.8253C71.8852 45.7781 71.7938 45.7545 71.6954 45.7545C71.5949 45.7545 71.5028 45.7781 71.4183 45.8253C71.3361 45.8705 71.2697 45.9402 71.2194 46.0346C71.1695 46.1289 71.1442 46.2438 71.1442 46.3791C71.1442 46.5166 71.1684 46.6325 71.2165 46.7268C71.2668 46.8212 71.3328 46.892 71.4154 46.9392C71.4976 46.9843 71.5879 47.0069 71.6863 47.0069Z" fill="#ED984B"/>
<path opacity="0.5" d="M75.4405 45.5115C75.5829 45.5115 75.7073 45.5433 75.8138 45.6069C75.9224 45.6704 76.0028 45.7505 76.0549 45.8469V45.5391H76.332V47.2622C76.332 47.4161 76.2997 47.5525 76.2355 47.6715C76.1713 47.7925 76.0788 47.8869 75.9584 47.9546C75.8402 48.0222 75.7015 48.0561 75.5429 48.0561C75.326 48.0561 75.1454 48.0038 75.0008 47.8992C74.8562 47.7945 74.7711 47.652 74.745 47.4715H75.0159C75.046 47.574 75.1084 47.6561 75.2027 47.7176C75.297 47.7812 75.4104 47.813 75.5429 47.813C75.6934 47.813 75.816 47.7648 75.9103 47.6684C76.0068 47.572 76.0549 47.4366 76.0549 47.2622V46.9084C76.0006 47.0069 75.9202 47.0889 75.8138 47.1545C75.7073 47.2202 75.5829 47.253 75.4405 47.253C75.2941 47.253 75.1605 47.2161 75.0401 47.1422C74.9215 47.0684 74.8283 46.9648 74.7601 46.8315C74.6918 46.6981 74.6577 46.5464 74.6577 46.3761C74.6577 46.2038 74.6918 46.053 74.7601 45.9238C74.8283 45.7925 74.9215 45.6909 75.0401 45.6192C75.1605 45.5474 75.2941 45.5115 75.4405 45.5115ZM76.0549 46.3792C76.0549 46.252 76.0296 46.1412 75.9797 46.0469C75.9294 45.9525 75.8611 45.8807 75.7749 45.8315C75.6905 45.7802 75.5972 45.7545 75.4948 45.7545C75.3924 45.7545 75.2988 45.7791 75.2148 45.8284C75.1304 45.8776 75.0632 45.9494 75.0129 46.0438C74.9626 46.1381 74.9377 46.2489 74.9377 46.3761C74.9377 46.5053 74.9626 46.6181 75.0129 46.7145C75.0632 46.8089 75.1304 46.8817 75.2148 46.933C75.2988 46.9822 75.3924 47.0069 75.4948 47.0069C75.5972 47.0069 75.6905 46.9822 75.7749 46.933C75.8611 46.8817 75.9294 46.8089 75.9797 46.7145C76.0296 46.6181 76.0549 46.5064 76.0549 46.3792Z" fill="#ED984B"/>
<path opacity="0.5" d="M78.8035 45.2654C78.7514 45.2654 78.7074 45.2469 78.671 45.21C78.6351 45.173 78.6171 45.1279 78.6171 45.0746C78.6171 45.0212 78.6351 44.9761 78.671 44.9392C78.7074 44.9023 78.7514 44.8838 78.8035 44.8838C78.8538 44.8838 78.896 44.9023 78.9302 44.9392C78.9661 44.9761 78.9845 45.0212 78.9845 45.0746C78.9845 45.1279 78.9661 45.173 78.9302 45.21C78.896 45.2469 78.8538 45.2654 78.8035 45.2654ZM78.936 45.5392V47.2253H78.6622V45.5392H78.936Z" fill="#ED984B"/>
<path opacity="0.5" d="M82.7762 46.3176C82.7762 46.371 82.7729 46.4274 82.767 46.4868H81.4479C81.4582 46.653 81.5132 46.7832 81.6134 46.8776C81.7158 46.9699 81.8395 47.0161 81.9841 47.0161C82.1023 47.0161 82.2007 46.9884 82.2792 46.933C82.3596 46.8756 82.4158 46.7997 82.4477 46.7053H82.7428C82.6987 46.8674 82.6103 46.9997 82.4778 47.1022C82.3453 47.2028 82.1809 47.253 81.9841 47.253C81.8274 47.253 81.6868 47.2171 81.5624 47.1453C81.4398 47.0735 81.3437 46.972 81.2732 46.8407C81.2031 46.7074 81.1679 46.5535 81.1679 46.3791C81.1679 46.2048 81.202 46.052 81.2703 45.9207C81.3385 45.7894 81.434 45.6889 81.5565 45.6192C81.681 45.5474 81.8234 45.5115 81.9841 45.5115C82.1405 45.5115 82.2792 45.5463 82.3996 45.6161C82.52 45.6858 82.6125 45.7822 82.6767 45.9053C82.7428 46.0263 82.7762 46.1638 82.7762 46.3176ZM82.4928 46.2591C82.4928 46.1525 82.4697 46.0612 82.4238 45.9853C82.3776 45.9074 82.3145 45.8489 82.2341 45.8099C82.1555 45.7689 82.0682 45.7484 81.972 45.7484C81.8333 45.7484 81.7151 45.7935 81.6167 45.8838C81.5202 45.974 81.4652 46.0992 81.4508 46.2591H82.4928Z" fill="#ED984B"/>
<path opacity="0.5" d="M85.589 47.253C85.4628 47.253 85.3494 47.2315 85.2488 47.1884C85.1482 47.1432 85.0689 47.0817 85.011 47.0038C84.9526 46.9238 84.9207 46.8325 84.9144 46.7299H85.1978C85.2055 46.814 85.2437 46.8827 85.3119 46.9361C85.3824 46.9894 85.4738 47.0161 85.5861 47.0161C85.6903 47.0161 85.7729 46.9925 85.8331 46.9453C85.8933 46.8981 85.9234 46.8386 85.9234 46.7669C85.9234 46.693 85.8911 46.6386 85.8268 46.6038C85.7626 46.5669 85.6635 46.5309 85.5288 46.4961C85.4062 46.4633 85.306 46.4304 85.2279 46.3976C85.1515 46.3628 85.0851 46.3125 85.0289 46.2468C84.9746 46.1792 84.9475 46.091 84.9475 45.9822C84.9475 45.8961 84.9728 45.8171 85.0231 45.7453C85.073 45.6735 85.1446 45.6171 85.2367 45.5761C85.3292 45.533 85.4345 45.5115 85.553 45.5115C85.7358 45.5115 85.8834 45.5586 85.9957 45.653C86.108 45.7474 86.1682 45.8766 86.1763 46.0407H85.9025C85.8962 45.9525 85.861 45.8817 85.7968 45.8284C85.7347 45.7751 85.6503 45.7484 85.5439 45.7484C85.4455 45.7484 85.3673 45.7699 85.309 45.813C85.2506 45.8561 85.2216 45.9125 85.2216 45.9822C85.2216 46.0376 85.2389 46.0838 85.273 46.1207C85.309 46.1556 85.353 46.1843 85.4055 46.2069C85.4595 46.2274 85.534 46.251 85.6283 46.2776C85.7468 46.3104 85.843 46.3433 85.9175 46.3761C85.9916 46.4069 86.0548 46.454 86.1069 46.5176C86.1612 46.5812 86.1895 46.6643 86.1913 46.7669C86.1913 46.8591 86.1663 46.9422 86.1161 47.0161C86.0658 47.0899 85.9946 47.1484 85.9025 47.1915C85.8118 47.2325 85.7076 47.253 85.589 47.253Z" fill="#ED984B"/>
</g>
</svg>
