<svg width="1617" height="254" viewBox="0 0 1617 254" fill="none" xmlns="http://www.w3.org/2000/svg">
<path d="M217.108 0L263.162 194.74C266.9 210.59 257.106 226.52 241.281 230.26C225.457 234.01 209.557 224.2 205.819 208.35L159.766 13.603L217.108 0Z" fill="#00814D"/>
<path d="M217.108 0L244.272 114.868C236.771 83.144 205.022 63.525 173.348 71.038L36.259 103.561C20.435 107.305 4.535 97.496 0.797003 81.646C-2.941 65.796 6.853 49.871 22.678 46.127L217.108 0Z" fill="url(#paint0_linear)"/>
<path d="M244.272 114.868L263.162 194.74C266.9 210.59 257.106 226.52 241.281 230.26C225.457 234 209.557 224.2 205.819 208.35L173.348 71.0381C204.997 63.5241 236.771 83.143 244.272 114.868Z" fill="url(#paint1_linear)"/>
<path d="M154.358 101.839L182.643 221.4C185.459 233.31 178.108 245.21 166.22 248.03C154.333 250.85 142.446 243.49 139.63 231.58L111.37 112.023L154.358 101.839Z" fill="#00814D"/>
<path d="M154.632 101.764L174.992 187.93C169.36 164.14 145.561 149.41 121.787 155.05L45.156 173.23C33.269 176.05 21.3819 168.68 18.5659 156.78C15.7499 144.87 23.101 132.96 34.988 130.14L154.632 101.764Z" fill="url(#paint2_linear)"/>
<path d="M174.743 187.98L182.643 221.4C185.459 233.31 178.108 245.21 166.221 248.03C154.333 250.85 142.446 243.49 139.63 231.58L121.538 155.08C145.287 149.49 169.111 164.19 174.743 187.98Z" fill="url(#paint3_linear)"/>
<path d="M380.364 127.2H352.752V190.57H319.707V25.5098H380.389C420.062 25.5098 439.899 47.9737 439.899 76.5787C439.849 101.664 422.853 127.2 380.364 127.2ZM378.943 100.466C397.584 100.466 405.857 91.2557 405.857 76.5787C405.857 61.4527 397.584 52.4667 378.943 52.4667H352.727V100.466H378.943Z" fill="#141414"/>
<path d="M496.27 190.57H463.225V59.5552H496.27V79.8982C504.543 66.4202 518.225 57.6582 536.417 57.6582V92.4282H527.67C508.082 92.4282 496.27 99.9922 496.27 125.302V190.57Z" fill="#141414"/>
<path d="M616.686 192.7C578.906 192.7 550.347 166.21 550.347 125.052C550.347 83.6682 579.853 57.4092 617.633 57.4092C655.413 57.4092 684.919 83.6682 684.919 125.052C684.919 166.21 654.69 192.7 616.686 192.7ZM616.686 163.84C634.155 163.84 650.927 151.06 650.927 125.052C650.927 98.7942 634.629 86.2642 617.16 86.2642C599.69 86.2642 583.866 98.7942 583.866 125.052C583.866 151.09 598.968 163.84 616.686 163.84Z" fill="#141414"/>
<path d="M759.282 192.7C726.461 192.7 703.559 173.55 702.139 149.19H735.433C736.604 159.12 745.824 166.69 759.032 166.69C772.016 166.69 779.094 160.77 779.094 153.21C779.094 129.79 705.204 144.7 705.204 96.6971C705.204 74.9311 724.567 57.4341 756.914 57.4341C788.563 57.4341 807.677 74.7071 809.57 100.716H777.922C776.975 90.5571 768.951 83.6931 755.967 83.6931C743.681 83.6931 737.327 88.6601 737.327 96.2231C737.327 120.11 809.82 105.209 810.74 153.21C810.74 175.67 791.155 192.7 759.282 192.7Z" fill="#141414"/>
<path d="M914.16 57.4341C947.68 57.4341 973.9 83.6931 973.9 124.603C973.9 165.51 947.68 192.72 914.16 192.72C893.63 192.72 878.98 182.56 870.95 171.9V253.02H837.91V59.5811H870.95V78.501C878.75 67.368 893.85 57.4341 914.16 57.4341ZM905.42 86.5131C887.7 86.5131 870.95 100.241 870.95 125.052C870.95 149.89 887.72 163.59 905.42 163.59C923.36 163.59 940.13 149.41 940.13 124.578C940.13 99.7671 923.36 86.5131 905.42 86.5131Z" fill="#141414"/>
<path d="M1049.21 57.4341C1070.22 57.4341 1084.62 67.368 1092.42 78.251V59.5811H1125.71V190.6H1092.42V171.45C1084.62 182.81 1069.77 192.75 1048.98 192.75C1015.94 192.75 989.5 165.54 989.5 124.628C989.47 83.6931 1015.91 57.4341 1049.21 57.4341ZM1057.71 86.5131C1039.99 86.5131 1023.24 99.7671 1023.24 124.578C1023.24 149.41 1040.01 163.59 1057.71 163.59C1075.87 163.59 1092.42 149.89 1092.42 125.052C1092.4 100.241 1075.87 86.5131 1057.71 86.5131Z" fill="#141414"/>
<path d="M1191.08 190.57H1158.04V59.5552H1191.08V79.8982C1199.36 66.4202 1213.04 57.6582 1231.23 57.6582V92.4282H1222.48C1202.89 92.4282 1191.08 99.9922 1191.08 125.302V190.57Z" fill="#141414"/>
<path d="M1310.55 192.7C1272.55 192.7 1244.91 166.21 1244.91 125.052C1244.91 83.6682 1271.82 57.4092 1310.55 57.4092C1348.33 57.4092 1375 83.1932 1375 122.207C1375 126.47 1374.77 130.72 1374.05 134.99H1278.43C1280.07 154.38 1293.31 165.26 1309.83 165.26C1323.98 165.26 1331.78 158.17 1336.04 149.41H1371.71C1364.6 173.55 1342.9 192.7 1310.55 192.7ZM1278.68 112.772H1340.78C1340.31 95.4992 1326.62 84.6412 1309.6 84.6412C1293.78 84.6412 1281.27 94.8002 1278.68 112.772Z" fill="#141414"/>
<path d="M1404.28 86.7623H1388.7V59.5563H1404.28V27.1572H1437.57V59.5563H1466.85V86.7623H1437.57V150.14C1437.57 158.9 1441.11 162.67 1451.5 162.67H1466.85V190.57H1446.07C1421.05 190.57 1404.28 179.94 1404.28 149.89V86.7623Z" fill="#141414"/>
<path d="M1548.77 192.7C1510.99 192.7 1482.43 166.21 1482.43 125.052C1482.43 83.6682 1511.93 57.4092 1549.71 57.4092C1587.49 57.4092 1617 83.6682 1617 125.052C1617 166.21 1586.77 192.7 1548.77 192.7ZM1548.77 163.84C1566.24 163.84 1583.01 151.06 1583.01 125.052C1583.01 98.7942 1566.71 86.2642 1549.24 86.2642C1531.77 86.2642 1515.95 98.7942 1515.95 125.052C1515.95 151.09 1531.05 163.84 1548.77 163.84Z" fill="#141414"/>
<defs>
<linearGradient id="paint0_linear" x1="7.555" y1="110.367" x2="230.69" y2="57.62" gradientUnits="userSpaceOnUse">
<stop stop-color="#14A76C"/>
<stop offset="1" stop-color="#00814D"/>
</linearGradient>
<linearGradient id="paint1_linear" x1="241.225" y1="230.28" x2="201.86" y2="64.2881" gradientUnits="userSpaceOnUse">
<stop stop-color="#00814D"/>
<stop offset="1" stop-color="#14A76C"/>
</linearGradient>
<linearGradient id="paint2_linear" x1="23.6239" y1="178.34" x2="164.807" y2="144.97" gradientUnits="userSpaceOnUse">
<stop stop-color="#14A76C"/>
<stop offset="1" stop-color="#00814D"/>
</linearGradient>
<linearGradient id="paint3_linear" x1="166.189" y1="248.07" x2="142.943" y2="150.05" gradientUnits="userSpaceOnUse">
<stop stop-color="#00814D"/>
<stop offset="1" stop-color="#14A76C"/>
</linearGradient>
</defs>
</svg>
