<svg width="251" height="39" viewBox="0 0 251 39" fill="none" xmlns="http://www.w3.org/2000/svg">
<g clip-path="url(#clip0)">
<path d="M33.7008 0L40.8495 30.0195C41.4297 32.4628 39.9095 34.9176 37.4531 35.4948C34.9967 36.0719 32.5287 34.5598 31.9485 32.1165L24.7998 2.09698L33.7008 0Z" fill="white"/>
<path d="M33.7015 0L37.918 17.707C36.7536 12.8166 31.8254 9.79232 26.9087 10.9505L5.62908 15.964C3.17269 16.5411 0.704701 15.029 0.124453 12.5857C-0.455796 10.1425 1.06446 7.68765 3.52084 7.1105L33.7015 0Z" fill="white"/>
<path d="M37.9174 17.7072L40.8496 30.0197C41.4299 32.463 39.9096 34.9178 37.4532 35.495C34.9969 36.0721 32.5289 34.56 31.9486 32.1167L26.9082 10.9507C31.821 9.79252 36.7531 12.8168 37.9174 17.7072Z" fill="white"/>
<path d="M23.9609 15.6987L28.3515 34.1291C28.7886 35.9644 27.6475 37.7998 25.8023 38.2345C23.9571 38.6693 22.1119 37.5343 21.6748 35.6989L17.2881 17.2686L23.9609 15.6987Z" fill="white"/>
<path d="M24.0034 15.687L27.1638 28.9692C26.2896 25.3023 22.5953 23.0322 18.9049 23.9018L7.00983 26.7029C5.16464 27.1377 3.31945 26.0026 2.88233 24.1673C2.44521 22.3319 3.58636 20.4966 5.43155 20.0618L24.0034 15.687Z" fill="white"/>
<path d="M27.1261 28.9768L28.3523 34.1288C28.7894 35.9642 27.6483 37.7995 25.8031 38.2343C23.9579 38.6691 22.1127 37.534 21.6756 35.6987L18.8672 23.9056C22.5537 23.0437 26.2518 25.31 27.1261 28.9768Z" fill="white"/>
<path d="M59.0424 19.6075H54.7564V29.3768H49.627V3.93213H59.0463C65.2047 3.93213 68.2839 7.39503 68.2839 11.8045C68.2761 15.6714 65.6379 19.6075 59.0424 19.6075ZM58.822 15.4867C61.7155 15.4867 62.9997 14.0669 62.9997 11.8045C62.9997 9.47278 61.7155 8.08762 58.822 8.08762H54.7525V15.4867H58.822Z" fill="white"/>
<path d="M77.0337 29.3765H71.9043V9.18012H77.0337V12.316C78.318 10.2382 80.4417 8.8877 83.2656 8.8877V14.2475H81.9078C78.8673 14.2475 77.0337 15.4133 77.0337 19.3149V29.3765Z" fill="white"/>
<path d="M95.7262 29.704C89.8618 29.704 85.4287 25.6216 85.4287 19.2768C85.4287 12.8974 90.0088 8.84961 95.8732 8.84961C101.738 8.84961 106.318 12.8974 106.318 19.2768C106.318 25.6216 101.625 29.704 95.7262 29.704ZM95.7262 25.2561C98.4379 25.2561 101.041 23.2861 101.041 19.2768C101.041 15.229 98.5114 13.2975 95.7997 13.2975C93.088 13.2975 90.6316 15.229 90.6316 19.2768C90.6316 23.2899 92.9758 25.2561 95.7262 25.2561Z" fill="white"/>
<path d="M117.859 29.7041C112.765 29.7041 109.21 26.7529 108.989 22.9976H114.157C114.339 24.5289 115.77 25.6948 117.821 25.6948C119.836 25.6948 120.935 24.7829 120.935 23.617C120.935 20.0079 109.465 22.305 109.465 14.9059C109.465 11.5507 112.471 8.85352 117.492 8.85352C122.405 8.85352 125.372 11.5161 125.666 15.5254H120.753C120.606 13.9594 119.36 12.9013 117.345 12.9013C115.438 12.9013 114.451 13.667 114.451 14.8328C114.451 18.515 125.704 16.218 125.847 23.617C125.847 27.0799 122.807 29.7041 117.859 29.7041Z" fill="white"/>
<path d="M141.902 8.85352C147.104 8.85352 151.174 12.9013 151.174 19.2076C151.174 25.5139 147.104 29.7079 141.902 29.7079C138.714 29.7079 136.439 28.1419 135.194 26.4989V39.0039H130.064V9.18442H135.194V12.101C136.405 10.3849 138.749 8.85352 141.902 8.85352ZM140.544 13.3361C137.793 13.3361 135.194 15.4523 135.194 19.2769C135.194 23.1053 137.797 25.2177 140.544 25.2177C143.329 25.2177 145.932 23.0322 145.932 19.2037C145.932 15.3792 143.329 13.3361 140.544 13.3361Z" fill="white"/>
<path d="M162.864 8.85352C166.125 8.85352 168.361 10.3849 169.572 12.0625V9.18442H174.74V29.3808H169.572V26.4297C168.361 28.1804 166.056 29.7117 162.829 29.7117C157.7 29.7117 153.596 25.5178 153.596 19.2114C153.592 12.9013 157.696 8.85352 162.864 8.85352ZM164.183 13.3361C161.433 13.3361 158.833 15.3792 158.833 19.2038C158.833 23.0322 161.437 25.2177 164.183 25.2177C167.003 25.2177 169.572 23.1053 169.572 19.2769C169.568 15.4523 167.003 13.3361 164.183 13.3361Z" fill="white"/>
<path d="M184.888 29.3765H179.759V9.18012H184.888V12.316C186.172 10.2382 188.296 8.8877 191.12 8.8877V14.2475H189.762C186.722 14.2475 184.888 15.4133 184.888 19.3149V29.3765Z" fill="white"/>
<path d="M203.431 29.704C197.532 29.704 193.242 25.6216 193.242 19.2768C193.242 12.8974 197.42 8.84961 203.431 8.84961C209.296 8.84961 213.435 12.8243 213.435 18.8382C213.435 19.4961 213.4 20.1502 213.288 20.8082H198.445C198.7 23.7978 200.754 25.4754 203.319 25.4754C205.516 25.4754 206.727 24.3827 207.389 23.0321H212.924C211.822 26.7528 208.452 29.704 203.431 29.704ZM198.484 17.3837H208.124C208.05 14.7212 205.926 13.0474 203.284 13.0474C200.828 13.0474 198.886 14.6134 198.484 17.3837Z" fill="white"/>
<path d="M217.981 13.3743H215.563V9.18031H217.981V4.18604H223.149V9.18031H227.695V13.3743H223.149V23.1435C223.149 24.494 223.699 25.075 225.312 25.075H227.695V29.3767H224.468C220.585 29.3767 217.981 27.7376 217.981 23.105V13.3743Z" fill="white"/>
<path d="M240.41 29.704C234.545 29.704 230.112 25.6216 230.112 19.2768C230.112 12.8974 234.692 8.84961 240.557 8.84961C246.421 8.84961 251.001 12.8974 251.001 19.2768C251.001 25.6216 246.309 29.704 240.41 29.704ZM240.41 25.2561C243.121 25.2561 245.725 23.2861 245.725 19.2768C245.725 15.229 243.195 13.2975 240.483 13.2975C237.772 13.2975 235.315 15.229 235.315 19.2768C235.315 23.2899 237.659 25.2561 240.41 25.2561Z" fill="white"/>
</g>
<defs>
<clipPath id="clip0">
<rect width="251" height="39" fill="white"/>
</clipPath>
</defs>
</svg>
